<svg xmlns="http://www.w3.org/2000/svg" width="35" height="35" viewBox="0 0 35 35" fill="none">
<path d="M34.5 17.5C34.5 26.8888 26.8889 34.5 17.5 34.5C8.11117 34.5 0.5 26.8888 0.5 17.5C0.5 8.11116 8.11117 0.5 17.5 0.5C26.8889 0.5 34.5 8.11116 34.5 17.5Z" stroke="#333333"/>
<path d="M25.65 9.11178L7.93388 16.0358C6.72482 16.5279 6.73182 17.2115 7.71205 17.5164L12.2605 18.9544L22.7843 12.2249C23.2819 11.918 23.7365 12.0831 23.3628 12.4193L14.8365 20.2183H14.8345L14.8365 20.2193L14.5227 24.971C14.9824 24.971 15.1852 24.7573 15.443 24.5052L17.6523 22.3278L22.2477 25.768C23.095 26.241 23.7036 25.9979 23.9144 24.973L26.931 10.564C27.2398 9.30926 26.4584 8.74112 25.65 9.11178Z" fill="black"/>
</svg>
