<svg xmlns="http://www.w3.org/2000/svg" width="35" height="35" viewBox="0 0 35 35" fill="none">
<circle cx="17.5" cy="17.5" r="17" stroke="#333333"/>
<path fill-rule="evenodd" clip-rule="evenodd" d="M26.5413 12.8126C26.6796 12.3446 26.5413 12 25.8788 12H23.6913C23.1347 12 22.878 12.2974 22.7388 12.6257C22.7388 12.6257 21.6264 15.3651 20.0506 17.1446C19.5406 17.6606 19.3089 17.8243 19.0306 17.8243C18.8914 17.8243 18.6823 17.6606 18.6823 17.1917V12.8126C18.6823 12.2503 18.5289 12 18.0656 12H14.6257C14.2782 12 14.069 12.2606 14.069 12.5083C14.069 13.0406 14.8573 13.164 14.9382 14.6623V17.9177C14.9382 18.6317 14.8107 18.7611 14.5323 18.7611C13.7907 18.7611 11.9866 16.0089 10.9158 12.8597C10.7083 12.2469 10.4983 12 9.93911 12H7.74998C7.125 12 7 12.2974 7 12.6257C7 13.2103 7.74165 16.1143 10.4541 19.9551C12.2624 22.578 14.8082 24 17.1273 24C18.5181 24 18.6898 23.6846 18.6898 23.1403V21.1577C18.6898 20.526 18.8214 20.4 19.2622 20.4C19.5872 20.4 20.1431 20.5646 21.4414 21.8289C22.9247 23.328 23.1688 24 24.0038 24H26.1913C26.8163 24 27.1296 23.6846 26.9496 23.0606C26.7513 22.44 26.0429 21.5391 25.1038 20.4703C24.5938 19.8617 23.8288 19.206 23.5963 18.8777C23.2722 18.4569 23.3647 18.2691 23.5963 17.8946C23.5963 17.8946 26.2629 14.1009 26.5404 12.8126H26.5413Z" fill="#333333"/>
</svg>
