<svg xmlns="http://www.w3.org/2000/svg" width="169" height="81" viewBox="0 0 169 81" fill="none">
<path d="M75.8889 1.85424C73.2071 2.29511 70.7634 2.81832 68.3196 3.34153C63.2076 4.41553 58.3606 5.79172 53.5406 7.38775C48.9317 8.84628 44.3633 10.6346 40.2576 12.4776C38.0925 13.413 36.1655 14.4306 34.0138 15.4759C32.0868 16.4935 30.1598 17.5112 28.2327 18.5288C24.3922 20.6741 21.0143 22.8741 17.65 25.184C11.1459 29.7763 6.07048 34.8627 3.05704 40.0306C1.55708 42.6695 0.744441 45.3356 0.619138 48.0289C0.493835 50.7221 1.49161 53.2775 2.92509 55.6678C4.35857 58.0581 6.66351 60.1183 9.41767 62.1233C12.1583 64.0184 15.3347 65.7483 19.158 67.1758C21.8042 68.3014 24.648 69.1796 27.4918 70.0578C29.8998 71.101 32.3079 72.1443 34.9271 73.0501C36.832 73.7088 38.9615 74.34 41.0774 74.8612C43.1934 75.3825 45.3229 76.0136 47.4389 76.5349C51.8955 77.5498 56.3251 78.3448 61.1904 78.9748C66.0557 79.6048 70.894 80.015 76.1411 80.0402C78.6523 80.0666 81.3881 80.0654 83.8993 80.0918C86.6217 79.9807 89.1194 79.8972 91.8282 79.6761C94.5371 79.4551 97.0078 79.1517 99.6896 78.7109C102.147 78.2976 104.815 77.7468 107.245 77.1137C109.676 76.4805 112.092 75.7375 114.509 74.9944C116.912 74.1414 119.091 73.316 121.27 72.4906C125.613 70.7299 129.692 68.667 133.308 66.5494C135.235 65.5317 137.149 64.4041 138.838 63.3041C140.527 62.2041 142.427 60.9666 144.115 59.8666C145.171 59.1791 145.989 58.4092 147.044 57.7217C147.255 57.5842 147.215 57.2545 146.977 57.1721C146.738 57.0898 146.065 57.1725 145.854 57.31C143.109 59.0975 140.365 60.885 137.62 62.6725C136.353 63.4975 134.862 64.3501 133.371 65.2027C131.879 66.0553 130.388 66.9079 128.883 67.6505C128.883 67.6505 129.108 67.623 129.094 67.513C126.732 68.6958 124.369 69.8785 121.782 71.0888C119.181 72.1892 116.58 73.2897 113.727 74.1978C111.76 74.8857 110.003 75.4361 108.009 75.9041C106.028 76.4821 103.795 76.8678 101.576 77.3635L101.801 77.3359C99.5682 77.7216 97.3355 78.1073 94.8648 78.4107C92.3941 78.714 90.1345 78.8799 87.6502 79.0733C84.4787 79.2396 81.069 79.3235 77.8705 79.2699C74.6719 79.2164 71.4599 79.0528 68.2343 78.7794C64.546 78.4512 60.8443 78.0131 57.129 77.4651C53.4003 76.8071 49.8961 76.1216 46.6031 75.2986C43.5482 74.5579 40.7179 73.7896 37.8741 72.9114C39.963 73.2128 42.052 73.5142 44.141 73.8156C46.4546 74.0894 48.9929 74.3357 51.5176 74.472C54.0423 74.6083 56.5805 74.8545 59.0917 74.8809C61.6164 75.0173 64.3523 75.0161 66.8635 75.0425C69.5993 75.0413 72.1105 75.0677 74.8329 74.9566C80.2776 74.7344 85.6952 74.2923 90.8613 73.658C93.5566 73.3271 96.252 72.9961 98.9338 72.5553C101.616 72.1144 104.284 71.5636 106.966 71.1227C109.634 70.5719 112.078 70.0487 114.746 69.4979C117.401 68.8372 119.831 68.2041 122.248 67.461C127.082 65.9749 131.439 64.3241 135.769 62.4535C139.875 60.6104 143.954 58.5475 147.345 56.4574C150.947 54.2298 154.087 51.9475 156.751 49.5005C159.414 47.0534 161.853 44.634 163.591 42.0774C165.329 39.5208 166.605 36.9095 167.417 34.2434C168.804 28.8288 168.156 23.5526 164.616 18.8547C162.971 16.6019 160.653 14.4318 157.674 12.4544C156.416 11.4931 154.933 10.5594 153.239 9.76312C151.546 8.96688 149.852 8.17064 147.934 7.40197C146.029 6.74323 144.124 6.08448 142.008 5.56324C139.892 5.04199 137.776 4.52075 135.435 4.02709C130.768 3.14968 125.916 2.62962 120.853 2.24706C113.252 1.61826 105.269 1.59422 97.1018 1.92753C97.0883 1.8176 96.8502 1.73526 96.6256 1.76284C96.6256 1.76284 96.6256 1.76284 96.8502 1.73526C96.3874 1.6805 95.9112 1.51581 95.4485 1.46105C94.9858 1.40628 94.5096 1.2416 94.0469 1.18683C93.5841 1.13207 92.8968 1.10489 92.4206 0.9402C91.7333 0.913015 91.2705 0.858248 90.5832 0.831063C89.4331 0.749114 88.072 0.804664 86.9489 0.942558C85.5878 0.998109 84.2401 1.16359 82.8924 1.32906C82.6678 1.35664 82.4432 1.38422 82.2186 1.4118C80.8034 1.02766 78.3462 1.44095 75.8889 1.85424ZM80.8979 1.79712C83.144 1.52133 85.3901 1.24554 87.6497 1.07967C89.2355 0.996539 91.0594 0.995748 92.6587 1.02254C93.5842 1.13207 94.7342 1.21402 95.6731 1.43347C95.6731 1.43347 95.6731 1.43347 95.8977 1.40589C94.312 1.48902 92.5016 1.59973 90.9293 1.79278C85.5116 2.23483 80.3455 2.86915 74.9818 3.75088C72.3 4.19175 69.6316 4.74254 67.1879 5.26575C64.7442 5.78896 62.0893 6.44968 59.6726 7.19273C57.2558 7.93579 54.8391 8.67884 52.4358 9.53182C50.0326 10.3848 47.8539 11.2102 45.6888 12.1455C41.345 13.9062 37.0283 15.8868 33.1877 18.032C29.3471 20.1773 25.9693 22.3773 23.0677 24.742C20.1661 27.1067 17.5025 29.5537 15.5398 32.1379C13.3525 34.7496 11.8526 37.3885 10.8018 39.9723C9.76458 42.6659 9.17656 45.3045 9.27587 47.9702C9.37518 50.6359 10.1483 53.2188 11.3572 55.6367C12.5661 58.0546 14.4488 60.3898 16.5426 62.5874C18.1062 64.1807 20.0921 65.499 22.316 66.8996C20.8739 66.2956 19.4317 65.6916 17.9896 65.0876C14.3505 63.3029 11.1471 61.353 8.82864 59.183C6.76181 57.2052 5.11721 54.9524 4.15995 52.7267C3.21618 50.611 2.94624 48.4126 3.35015 46.1314L3.36364 46.2414C3.71356 43.5205 4.97542 40.7992 6.7 38.1328L6.7135 38.2427C9.04443 34.9438 12.0627 31.6722 15.7953 28.6476C18.4993 26.5303 21.4279 24.3854 24.3835 22.4604C27.5502 20.3979 30.9686 18.5277 34.3869 16.6574C34.3869 16.6574 34.3869 16.6574 34.1758 16.7949C37.1719 15.1997 40.4061 13.6868 43.6538 12.2838C46.9015 10.8808 50.1627 9.58776 53.6621 8.37704C60.225 6.12069 67.5292 4.33122 74.6493 2.89908L74.4246 2.92667C76.1945 2.48619 78.6518 2.0729 80.8979 1.79712ZM95.2018 3.16503C99.7345 2.94322 104.281 2.83133 108.84 2.82936C113.4 2.82739 117.987 3.04527 122.362 3.40065C122.138 3.42823 122.124 3.3183 121.9 3.34588C128.351 3.89273 134.618 4.79693 140.49 6.19598C142.381 6.7448 144.259 7.1837 146.164 7.84244C147.83 8.41884 149.511 9.10517 150.966 9.81907C152.674 10.7252 154.381 11.6314 155.877 12.6751C157.373 13.7187 158.869 14.7624 160.154 15.9436C161.426 17.0148 162.486 18.2236 163.322 19.4599C164.158 20.6962 165.007 22.0425 165.618 23.3064C166.643 26.0816 167.007 29.0495 166.684 31.9902L166.671 31.8803C166.411 33.4743 166.137 34.9585 165.414 36.4978C164.916 38.0095 163.968 39.5764 163.02 41.1432C160.901 44.3046 158.08 47.3288 154.334 50.2435C150.812 53.1306 146.801 55.7431 142.089 58.2185C136.955 60.969 131.093 63.3624 124.966 65.4537C123.434 65.9765 121.677 66.5269 120.132 66.9398C118.376 67.4902 116.606 67.9307 114.836 68.3711C111.296 69.2521 107.729 69.9132 104.163 70.5743L104.387 70.5467C102.379 70.9049 100.371 71.263 98.1385 71.6487C95.9059 72.0344 93.8844 72.2826 91.6383 72.5584C87.3707 73.0824 83.0895 73.4965 78.5568 73.7183C76.2972 73.8842 74.0241 73.9401 71.5128 73.9137C69.2397 73.9697 66.9531 73.9157 64.4419 73.8893C62.1553 73.8353 59.8687 73.7813 57.5686 73.6174C55.282 73.5634 52.9819 73.3995 50.9064 73.2081L51.131 73.1805C44.2172 72.5789 37.7121 71.5923 31.6157 70.2209C31.6157 70.2209 31.6158 70.2209 31.3911 70.2485C30.2006 69.8367 29.2212 69.2875 28.2552 68.8482C24.378 66.9811 20.9095 64.7291 18.3395 62.3668C15.5313 59.9221 13.5946 57.1473 12.3318 54.2897C11.0554 51.3222 10.664 48.1345 11.1846 44.9463L11.1981 45.0562L11.1846 44.9463C11.1846 44.9463 11.1846 44.9463 11.1711 44.8364C11.1711 44.8364 11.1711 44.8364 11.1846 44.9463C11.7051 41.7582 12.913 38.5973 15.0328 35.4359C16.205 33.8415 17.3772 32.247 19.0122 30.7073C20.409 29.0853 22.2685 27.518 24.1416 26.0607C25.8035 24.7408 27.6901 23.3934 29.5766 22.046C31.4766 20.8084 33.6013 19.5434 35.964 18.3606C38.749 16.9029 41.7721 15.5275 45.0198 14.1245C48.0564 12.859 51.3176 11.566 54.8304 10.4652C57.4583 9.58461 60.0996 8.81398 62.9656 8.01577C65.8451 7.32748 68.4999 6.66676 71.3929 6.08839C79.4114 4.54595 87.2864 3.69061 95.2018 3.16503ZM55.4773 10.1626C55.4773 10.1626 55.2527 10.1902 55.4773 10.1626C55.2527 10.1902 55.4773 10.1626 55.4773 10.1626ZM24.5773 25.8956L24.3662 26.0331C24.5908 26.0055 24.5773 25.8956 24.5773 25.8956ZM15.7066 35.3532C15.7066 35.3532 15.7201 35.4631 15.7066 35.3532C15.7201 35.4631 15.7066 35.3532 15.7066 35.3532ZM8.37942 59.2381C8.39292 59.3481 8.39292 59.3481 8.37942 59.2381C8.39292 59.3481 8.39292 59.3481 8.37942 59.2381Z" fill="#FA0201"/>
</svg>
