<svg xmlns="http://www.w3.org/2000/svg" width="33" height="12" viewBox="0 0 33 12" fill="none">
<path fill-rule="evenodd" clip-rule="evenodd" d="M0.979941 10.3454C0.98591 10.3793 0.991881 10.4131 1.05153 10.4026C1.11714 10.4259 1.21258 10.444 1.33187 10.423C1.54661 10.42 1.77326 10.3102 1.80308 10.305L7.2666 8.32946C10.6246 7.144 14.0543 6.19024 17.5019 5.51254C18.8976 5.23153 20.2754 5.02348 21.6891 4.84402C23.7886 4.54361 25.9001 4.31091 28.0475 4.2813C28.1071 4.27078 28.1906 4.22116 28.1727 4.11961C28.1548 4.01806 28.113 3.95562 28.0236 3.9714C25.8464 3.83175 23.6931 3.82751 21.5697 3.99251C20.1441 4.10427 18.7364 4.31758 17.3049 4.56999C13.7858 5.19052 10.3323 6.18339 6.94439 7.3741C5.66798 7.80858 4.36174 8.24833 3.10323 8.78436C2.56046 9.01967 2.02366 9.28883 1.51669 9.55274C1.48686 9.558 1.26021 9.66777 1.07532 9.83998C0.967966 9.92871 0.890427 10.0122 0.87851 10.119C0.824851 10.3379 0.818889 10.304 0.854681 10.3326C0.890473 10.3612 0.926263 10.3898 0.979941 10.3454C0.98591 10.3793 0.956086 10.3845 0.979941 10.3454Z" fill="#FA0201"/>
<path fill-rule="evenodd" clip-rule="evenodd" d="M29.3493 3.33673C27.8082 4.14621 25.7456 5.18207 25.4057 5.37644C25.2773 5.4439 24.6882 5.81664 24.0613 6.24085C23.6083 6.5896 23.1099 6.94635 22.8761 7.21165C22.846 7.30657 22.8007 7.31456 22.816 7.40148C22.8013 7.58333 22.892 7.56732 22.8466 7.57532C22.423 7.56039 22.545 7.98701 23.3693 7.88649C23.6868 7.8305 24.2382 7.50921 24.7443 7.19592C25.3411 6.86663 25.8771 6.45842 25.9679 6.44242C26.3985 6.23205 29.859 4.63601 31.2717 3.89398C31.574 3.75107 31.7401 3.63215 31.8685 3.56469C32.1631 3.37832 32.1702 3.15302 32.2002 3.0581C32.2449 2.78134 32.1383 2.44165 31.8201 2.22888C31.555 2.05158 30.6094 1.99425 30.5186 2.01025C29.2855 1.914 28.0448 1.77429 26.8117 1.67804C25.5332 1.58979 24.3154 1.58045 23.0446 1.53566C22.8101 1.53219 22.6063 1.70257 22.5539 1.93587C22.5468 2.16118 22.7289 2.39793 22.9634 2.4014C24.2195 2.62803 25.4302 2.86268 26.6786 3.04585C27.4958 3.17063 28.4037 3.2794 29.3493 3.33673Z" fill="#FA0201"/>
</svg>
