<svg xmlns="http://www.w3.org/2000/svg" width="120" height="122" viewBox="0 0 120 122" fill="none">
<path d="M37.3384 38.0919C36.7914 34.8188 36.3278 31.8194 35.4095 28.8077C34.516 24.8916 34.9867 21.0125 35.2779 17.0381C35.3401 14.7771 36.9332 13.1008 38.347 11.3291C40.4197 8.76068 42.8513 6.38304 46.4178 5.75593C52.366 4.56001 57.5097 6.14798 61.3942 10.5074C66.0797 15.5222 69.4722 21.2259 70.8292 28.1414L70.9127 28.4152C73.3123 33.8204 73.7013 39.5329 75.0957 45.0918C75.5841 47.1868 76.3479 49.1987 77.3869 51.1276C78.7723 53.6995 79.7865 56.5328 80.3461 59.3537C80.989 62.4485 81.9074 65.4602 82.8256 68.4719C84.8416 74.5907 86.2111 81.054 86.6711 87.4926C86.776 90.3012 87.1561 93.0267 86.9856 95.9183C86.9697 99.8097 86.1402 103.498 84.3179 106.888C81.7284 111.705 78.1708 115.319 72.6772 116.527C71.9472 116.598 71.1213 116.847 70.4873 116.739C66.324 115.902 61.8854 115.148 58.4184 112.157C53.5286 107.951 50.0278 102.878 48.1912 96.8549C45.6033 88.3673 43.2907 79.7968 40.7987 71.1308C39.6424 66.8455 38.2108 62.6432 36.8751 58.2625C35.36 53.7864 34.3955 49.1443 33.6104 44.5976C32.3458 40.9429 33.0171 39.6941 37.3384 38.0919ZM35.6955 41.577C35.6583 42.9336 35.6334 43.838 35.8839 44.6594C37.0864 50.5751 38.3848 56.3124 40.4132 61.979C41.2604 64.2647 42.1077 66.5504 42.6796 68.9192C44.5499 77.0252 47.2462 84.8822 49.3918 92.9052C50.7986 98.0119 53.0437 102.417 55.8393 106.657C56.3651 107.395 56.9743 108.407 57.8713 108.884C60.4662 110.493 63.0612 112.102 65.9439 113.176C67.2955 113.666 68.9224 114.072 70.4659 114.204C72.8229 114.54 75.2047 113.971 76.9772 112.39C81.5401 108.622 84.7637 103.913 84.8418 97.7607C85.0282 90.9777 84.03 84.253 82.2059 77.7774C81.0495 73.4921 79.6179 69.2898 78.4616 65.0045C77.6393 61.8143 76.8169 58.6242 75.7192 55.5171C74.5505 51.684 73.2023 47.7556 72.1295 43.7441C70.9021 38.7328 70.0336 33.9123 68.2556 29.067C67.2414 26.2337 66.3231 23.222 65.3089 20.3887C65.1419 19.8411 64.8791 19.4719 64.4368 19.0074C62.7637 16.9707 60.9111 14.8387 59.1421 12.9804C58.0781 11.9559 56.8348 10.8361 55.5791 10.1684C50.1974 7.30684 45.5421 7.81384 41.5174 11.8678C40.1161 13.1873 39.3364 15.0667 38.4732 16.6724C37.3347 18.3611 37.1056 20.0745 37.4147 22.0741C37.9245 26.7039 38.6136 31.429 39.8534 35.9881C40.4378 37.9046 40.5675 39.8088 40.9725 41.6299C41.3774 43.4511 41.603 45.1769 42.1039 46.8196C42.9387 49.5576 44.2282 52.3079 45.063 55.0458C46.9831 61.3431 48.532 67.9017 50.452 74.1989C51.4538 77.4844 52.0844 81.0314 53.7202 84.4246C55.4395 88.0917 61.1676 91.5962 66.6612 90.3879C69.043 89.8191 70.9825 88.7857 72.1334 86.6448C73.4762 84.1471 74.6395 81.554 74.5347 78.7454C74.1084 74.3895 73.778 69.8551 72.3464 65.6528C70.3428 59.0818 68.3393 52.5108 66.3358 45.9397C65.5009 43.2018 64.762 40.2855 63.7478 37.4522C63.5809 36.9046 63.2345 36.2617 62.8882 35.6187C62.5418 34.9757 61.1777 34.9386 60.4353 35.4615C59.7888 35.806 59.6805 36.4365 59.8474 36.9841C60.0144 37.5317 60.3608 38.1747 60.5277 38.7223C61.375 41.008 61.9469 43.3768 62.6147 45.5671C64.343 52.2211 65.8918 58.7798 67.5366 65.16C68.6094 69.1715 69.2275 73.1707 69.391 77.1575C69.4372 78.7879 69.2081 80.5013 68.7996 82.1193C67.4196 85.9736 63.7448 87.2313 60.2529 85.1452C58.5549 84.013 57.1322 82.7977 56.5478 80.8812C55.2707 77.6787 53.7183 74.5592 52.7166 71.2737C50.88 65.2503 49.4146 58.9654 47.578 52.942C47.411 52.3944 47.4235 51.9422 47.1606 51.573C45.1073 46.8108 43.9759 41.6211 42.7485 36.6098C42.0931 33.9673 41.5336 31.1463 41.2494 28.2424C41.0487 25.6122 40.9439 22.8036 41.3772 20.2812C41.8354 16.8543 43.37 13.9998 46.9613 12.4683C50.8279 10.8538 55.7088 12.0725 58.1706 15.2167C60.1066 17.6225 61.3961 20.3728 62.3144 23.3845C63.4707 27.6698 65.4529 31.7061 65.7833 36.2405C65.7708 36.6927 65.9378 37.2402 66.1048 37.7878C68.5382 45.2756 70.6962 52.8464 73.1296 60.3342C74.6323 65.2624 75.9556 70.0953 77.7335 74.9405C79.2486 79.4166 80.2131 84.0587 80.9982 88.6055C81.6039 93.0568 81.659 97.6742 80.6253 102.171C79.3625 108.382 73.6523 110.852 69.3931 110.193C65.038 109.712 61.7255 107.722 58.9049 104.387C56.2638 101.147 54.4485 97.6586 53.3757 93.6471C52.6368 90.7307 51.802 87.9928 50.9672 85.2549C50.6333 84.1597 49.9406 82.8737 49.6067 81.7786C48.4503 77.4933 47.294 73.208 46.1377 68.9227C44.731 63.816 43.1448 58.6139 41.7381 53.5073C40.7487 49.7696 39.6635 46.2103 38.6741 42.4726C38.5906 42.1988 38.4113 42.1034 38.1484 41.7342C37.3349 41.5311 36.8802 41.5187 35.6955 41.577ZM62.1493 32.7023C61.3269 29.5122 60.588 26.5959 59.6697 23.5842C58.8349 20.8463 57.6289 18.3697 55.7763 16.2377C52.3341 12.3428 46.0146 13.8002 44.5139 18.7373C43.6258 21.2474 43.4678 23.6868 43.9438 26.2339C44.6578 30.0547 45.1925 33.78 46.2777 37.3393C47.4216 42.0768 48.9367 46.5529 50.0806 51.2904C51.9882 58.0398 53.9918 64.6108 55.8994 71.3602C56.8177 74.3719 57.9154 77.479 59.4802 80.1463C60.0059 80.8847 60.5317 81.623 61.0574 82.3614C63.3646 84.5058 66.7642 83.3311 67.4852 80.2734C67.7854 79.286 67.7268 78.1078 67.7516 77.2034C67.3005 73.7519 66.8493 70.3003 66.0269 67.1102C64.2738 61.3605 63.0713 55.4449 61.4976 49.7906C60.5917 46.3267 59.8777 42.5059 58.6965 39.1251C56.7143 35.0888 57.4816 33.6616 62.1493 32.7023ZM76.8046 82.2464C76.2168 83.7691 75.7372 84.6611 75.533 85.4701C74.7533 87.3496 73.7942 89.1337 72.1175 90.5362C69.4231 92.5446 66.5618 94.0055 63.045 92.8238C60.8799 92.1314 58.8942 91.5343 57.0168 90.3067C56.4786 90.0206 56.0363 89.556 55.2939 90.0789C55.5906 92.5307 55.8872 94.9824 57.1891 97.2805C58.7539 99.9477 60.4146 102.437 62.7219 104.581C63.9652 105.701 65.6632 106.833 67.1942 107.418C71.3326 109.159 76.217 106.939 77.6094 102.633C78.414 99.8487 79.0392 96.9694 78.755 94.0654C78.3873 90.8877 78.0196 87.7099 77.6519 84.5321C77.4849 83.9846 77.1386 83.3416 76.8046 82.2464Z" fill="#DBDBDB"/>
</svg>
