<svg width="40" height="40" viewBox="0 0 40 40" fill="none" xmlns="http://www.w3.org/2000/svg">
<path d="M35.9455 21.3823L37.9785 10.2329C38.014 10.0414 38.0054 9.84435 37.9535 9.65666C37.9015 9.46898 37.8075 9.29559 37.6786 9.14962C37.5554 8.99892 37.4003 8.87741 37.2246 8.79384C37.0488 8.71027 36.8567 8.66672 36.662 8.66631H9.78229L8.96574 4.18322C8.85294 3.57116 8.52963 3.01784 8.0518 2.61911C7.57397 2.22038 6.97174 2.00136 6.34942 2H3.33316C2.97958 2 2.64049 2.14047 2.39047 2.3905C2.14046 2.64054 2 2.97966 2 3.33326C2 3.68687 2.14046 4.02599 2.39047 4.27602C2.64049 4.52606 2.97958 4.66652 3.33316 4.66652H6.34942L10.9155 29.8319C10.2645 30.4053 9.78621 31.1489 9.53441 31.9792C9.28262 32.8095 9.26726 33.6935 9.49006 34.532C9.71286 35.3705 10.165 36.1303 10.7957 36.726C11.4264 37.3218 12.2107 37.7299 13.0604 37.9045C13.9102 38.0791 14.7919 38.0134 15.6064 37.7146C16.4208 37.4158 17.1359 36.8959 17.6713 36.2132C18.2066 35.5305 18.5411 34.712 18.637 33.8497C18.733 32.9875 18.5867 32.1155 18.2145 31.3318H27.1133C26.68 32.2453 26.5551 33.2749 26.7575 34.2656C26.9598 35.2562 27.4784 36.1544 28.2353 36.8248C28.9921 37.4952 29.9462 37.9017 30.9539 37.983C31.9617 38.0643 32.9686 37.816 33.8231 37.2756C34.6776 36.7352 35.3335 35.9318 35.692 34.9864C36.0505 34.0409 36.0922 33.0047 35.811 32.0335C35.5297 31.0623 34.9406 30.2087 34.1324 29.6012C33.3241 28.9938 32.3405 28.6653 31.3294 28.6652H13.4151L12.6819 24.6655H32.0127C32.9488 24.665 33.855 24.3362 34.5737 23.7363C35.2923 23.1363 35.7778 22.3033 35.9455 21.3823ZM15.9981 33.3317C15.9981 33.7272 15.8808 34.1139 15.6611 34.4427C15.4414 34.7716 15.1291 35.028 14.7637 35.1793C14.3983 35.3307 13.9962 35.3703 13.6083 35.2931C13.2204 35.216 12.864 35.0255 12.5844 34.7458C12.3047 34.4661 12.1143 34.1098 12.0371 33.7218C11.9599 33.3339 11.9995 32.9318 12.1509 32.5663C12.3022 32.2009 12.5586 31.8886 12.8874 31.6688C13.2163 31.4491 13.6029 31.3318 13.9984 31.3318C14.5288 31.3318 15.0374 31.5425 15.4124 31.9175C15.7874 32.2926 15.9981 32.8013 15.9981 33.3317ZM33.3292 33.3317C33.3292 33.7272 33.2119 34.1139 32.9921 34.4427C32.7724 34.7716 32.4601 35.028 32.0947 35.1793C31.7293 35.3307 31.3272 35.3703 30.9393 35.2931C30.5514 35.216 30.1951 35.0255 29.9154 34.7458C29.6357 34.4661 29.4453 34.1098 29.3681 33.7218C29.2909 33.3339 29.3306 32.9318 29.4819 32.5663C29.6333 32.2009 29.8896 31.8886 30.2184 31.6688C30.5473 31.4491 30.9339 31.3318 31.3294 31.3318C31.8598 31.3318 32.3684 31.5425 32.7434 31.9175C33.1185 32.2926 33.3292 32.8013 33.3292 33.3317ZM10.2656 11.3328H35.0623L33.3292 20.899C33.2742 21.208 33.1121 21.4877 32.8713 21.6889C32.6305 21.8901 32.3264 21.9999 32.0127 21.9989H12.1986L10.2656 11.3328Z" fill="black"/>
</svg>
