<svg width="24" height="24" viewBox="0 0 24 24" fill="none" xmlns="http://www.w3.org/2000/svg">
<path d="M10.65 20.15L8.925 18.575C7.15833 16.9583 5.56267 15.354 4.138 13.762C2.71267 12.1707 2 10.4167 2 8.5C2 6.93333 2.525 5.625 3.575 4.575C4.625 3.525 5.93333 3 7.5 3C8.38333 3 9.21667 3.18733 10 3.562C10.7833 3.93733 11.45 4.45 12 5.1C12.55 4.45 13.2167 3.93733 14 3.562C14.7833 3.18733 15.6167 3 16.5 3C18.0667 3 19.375 3.525 20.425 4.575C21.475 5.625 22 6.93333 22 8.5C22 10.4167 21.2917 12.175 19.875 13.775C18.4583 15.375 16.85 16.9833 15.05 18.6L13.35 20.15C12.9667 20.5167 12.5167 20.7 12 20.7C11.4833 20.7 11.0333 20.5167 10.65 20.15ZM11.05 7.1C10.5667 6.41667 10.05 5.89567 9.5 5.537C8.95 5.179 8.28333 5 7.5 5C6.5 5 5.66667 5.33333 5 6C4.33333 6.66667 4 7.5 4 8.5C4 9.36667 4.30833 10.2873 4.925 11.262C5.54167 12.2373 6.27933 13.1833 7.138 14.1C7.996 15.0167 8.87933 15.875 9.788 16.675C10.696 17.475 11.4333 18.1333 12 18.65C12.5667 18.1333 13.3043 17.475 14.213 16.675C15.121 15.875 16.0043 15.0167 16.863 14.1C17.721 13.1833 18.4583 12.2373 19.075 11.262C19.6917 10.2873 20 9.36667 20 8.5C20 7.5 19.6667 6.66667 19 6C18.3333 5.33333 17.5 5 16.5 5C15.7167 5 15.05 5.179 14.5 5.537C13.95 5.89567 13.4333 6.41667 12.95 7.1C12.8333 7.26667 12.6917 7.39167 12.525 7.475C12.3583 7.55833 12.1833 7.6 12 7.6C11.8167 7.6 11.6417 7.55833 11.475 7.475C11.3083 7.39167 11.1667 7.26667 11.05 7.1Z" fill="black"/>
</svg>
