<svg width="24" height="24" viewBox="0 0 24 24" fill="none" xmlns="http://www.w3.org/2000/svg">
<path d="M10.65 20.1743L8.925 18.597C7.15833 16.9781 5.56267 15.3715 4.138 13.7772C2.71267 12.1836 2 10.4272 2 8.50778C2 6.9389 2.525 5.62871 3.575 4.57723C4.625 3.52574 5.93333 3 7.5 3C8.38333 3 9.21667 3.1876 10 3.56279C10.7833 3.93866 11.45 4.45205 12 5.10297C12.55 4.45205 13.2167 3.93866 14 3.56279C14.7833 3.1876 15.6167 3 16.5 3C18.0667 3 19.375 3.52574 20.425 4.57723C21.475 5.62871 22 6.9389 22 8.50778C22 10.4272 21.2917 12.188 19.875 13.7902C18.4583 15.3925 16.85 17.0031 15.05 18.6221L13.35 20.1743C12.9667 20.5248 12.5167 20.7 12 20.7C11.4833 20.7 11.0333 20.5248 10.65 20.1743Z" fill="#E02929"/>
</svg>
