<svg width="24" height="24" viewBox="0 0 24 24" fill="none" xmlns="http://www.w3.org/2000/svg">
<path d="M12 9C11.7167 9 11.4793 8.904 11.288 8.712C11.096 8.52067 11 8.28333 11 8V6H9C8.71667 6 8.47933 5.90433 8.288 5.713C8.096 5.521 8 5.28333 8 5C8 4.71667 8.096 4.479 8.288 4.287C8.47933 4.09567 8.71667 4 9 4H11V2C11 1.71667 11.096 1.479 11.288 1.287C11.4793 1.09567 11.7167 1 12 1C12.2833 1 12.521 1.09567 12.713 1.287C12.9043 1.479 13 1.71667 13 2V4H15C15.2833 4 15.521 4.09567 15.713 4.287C15.9043 4.479 16 4.71667 16 5C16 5.28333 15.9043 5.521 15.713 5.713C15.521 5.90433 15.2833 6 15 6H13V8C13 8.28333 12.9043 8.52067 12.713 8.712C12.521 8.904 12.2833 9 12 9ZM7 22C6.45 22 5.97933 21.8043 5.588 21.413C5.196 21.021 5 20.55 5 20C5 19.45 5.196 18.979 5.588 18.587C5.97933 18.1957 6.45 18 7 18C7.55 18 8.02067 18.1957 8.412 18.587C8.804 18.979 9 19.45 9 20C9 20.55 8.804 21.021 8.412 21.413C8.02067 21.8043 7.55 22 7 22ZM17 22C16.45 22 15.9793 21.8043 15.588 21.413C15.196 21.021 15 20.55 15 20C15 19.45 15.196 18.979 15.588 18.587C15.9793 18.1957 16.45 18 17 18C17.55 18 18.021 18.1957 18.413 18.587C18.8043 18.979 19 19.45 19 20C19 20.55 18.8043 21.021 18.413 21.413C18.021 21.8043 17.55 22 17 22ZM7 17C6.23333 17 5.65433 16.6707 5.263 16.012C4.871 15.354 4.86667 14.7 5.25 14.05L6.6 11.6L3 4H2C1.71667 4 1.47933 3.904 1.288 3.712C1.096 3.52067 1 3.28333 1 3C1 2.71667 1.096 2.479 1.288 2.287C1.47933 2.09567 1.71667 2 2 2H3.625C3.80833 2 3.98333 2.05 4.15 2.15C4.31667 2.25 4.44167 2.39167 4.525 2.575L8.55 11H15.55L19.125 4.525C19.2083 4.35833 19.3293 4.229 19.488 4.137C19.646 4.04567 19.8167 4 20 4C20.3833 4 20.671 4.16667 20.863 4.5C21.0543 4.83333 21.0583 5.16667 20.875 5.5L17.3 11.95C17.1167 12.2833 16.875 12.5417 16.575 12.725C16.275 12.9083 15.9333 13 15.55 13H8.1L7 15H18C18.2833 15 18.5207 15.0957 18.712 15.287C18.904 15.479 19 15.7167 19 16C19 16.2833 18.904 16.5207 18.712 16.712C18.5207 16.904 18.2833 17 18 17H7Z" fill="white"/>
</svg>
