<svg width="32" height="32" viewBox="0 0 32 32" fill="none" xmlns="http://www.w3.org/2000/svg">
<g clip-path="url(#clip0_140_267)">
<path d="M3.99994 29C3.86833 29.0008 3.73787 28.9755 3.61603 28.9258C3.49419 28.876 3.38338 28.8027 3.28994 28.71C3.19621 28.617 3.12182 28.5064 3.07105 28.3846C3.02028 28.2627 2.99414 28.132 2.99414 28C2.99414 27.868 3.02028 27.7373 3.07105 27.6154C3.12182 27.4936 3.19621 27.383 3.28994 27.29L27.2899 3.29C27.4782 3.1017 27.7336 2.99591 27.9999 2.99591C28.2662 2.99591 28.5216 3.1017 28.7099 3.29C28.8982 3.47831 29.004 3.7337 29.004 4C29.004 4.2663 28.8982 4.5217 28.7099 4.71L4.70994 28.71C4.6165 28.8027 4.50568 28.876 4.38385 28.9258C4.26201 28.9755 4.13155 29.0008 3.99994 29Z" fill="#FA0202"/>
<path d="M27.9997 29C27.8681 29.0008 27.7376 28.9755 27.6158 28.9258C27.494 28.876 27.3831 28.8027 27.2897 28.71L3.2897 4.71C3.10139 4.5217 2.99561 4.2663 2.99561 4C2.99561 3.7337 3.10139 3.47831 3.2897 3.29C3.478 3.1017 3.7334 2.99591 3.9997 2.99591C4.266 2.99591 4.52139 3.1017 4.7097 3.29L28.7097 27.29C28.8034 27.383 28.8778 27.4936 28.9286 27.6154C28.9794 27.7373 29.0055 27.868 29.0055 28C29.0055 28.132 28.9794 28.2627 28.9286 28.3846C28.8778 28.5064 28.8034 28.617 28.7097 28.71C28.6163 28.8027 28.5054 28.876 28.3836 28.9258C28.2618 28.9755 28.1313 29.0008 27.9997 29Z" fill="#FA0202"/>
</g>
<defs>
<clipPath id="clip0_140_267">
<rect width="32" height="32" fill="white"/>
</clipPath>
</defs>
</svg>
